ModelForces
version=1
nRows=4
nColumns=155
inDegrees=no

This file contains the forces exerted on a model during a simulation.

A force is a generalized force, meaning that it can be either a force (N) or a torque (Nm).

Units are S.I. units (second, meters, Newtons, ...)
Angles are in degrees.

endheader
time	glut_med1_r	glut_med2_r	glut_med3_r	glut_min1_r	glut_min2_r	glut_min3_r	semimem_r	semiten_r	bifemlh_r	bifemsh_r	sar_r	add_long_r	add_brev_r	add_mag1_r	add_mag2_r	add_mag3_r	tfl_r	pect_r	grac_r	glut_max1_r	glut_max2_r	glut_max3_r	iliacus_r	psoas_r	quad_fem_r	gem_r	peri_r	rect_fem_r	vas_med_r	vas_int_r	vas_lat_r	med_gas_r	lat_gas_r	soleus_r	tib_post_r	flex_dig_r	flex_hal_r	tib_ant_r	per_brev_r	per_long_r	per_tert_r	ext_dig_r	ext_hal_r	glut_med1_l	glut_med2_l	glut_med3_l	glut_min1_l	glut_min2_l	glut_min3_l	semimem_l	semiten_l	bifemlh_l	bifemsh_l	sar_l	add_long_l	add_brev_l	add_mag1_l	add_mag2_l	add_mag3_l	tfl_l	pect_l	grac_l	glut_max1_l	glut_max2_l	glut_max3_l	iliacus_l	psoas_l	quad_fem_l	gem_l	peri_l	rect_fem_l	vas_med_l	vas_int_l	vas_lat_l	med_gas_l	lat_gas_l	soleus_l	tib_post_l	flex_dig_l	flex_hal_l	tib_ant_l	per_brev_l	per_long_l	per_tert_l	ext_dig_l	ext_hal_l	ercspn_r	ercspn_l	intobl_r	intobl_l	extobl_r	extobl_l	femur_lat_meniscii_r.femur_lat_r.force.X	femur_lat_meniscii_r.femur_lat_r.force.Y	femur_lat_meniscii_r.femur_lat_r.force.Z	femur_lat_meniscii_r.femur_lat_r.torque.X	femur_lat_meniscii_r.femur_lat_r.torque.Y	femur_lat_meniscii_r.femur_lat_r.torque.Z	femur_lat_meniscii_r.meniscus_lat_r.force.X	femur_lat_meniscii_r.meniscus_lat_r.force.Y	femur_lat_meniscii_r.meniscus_lat_r.force.Z	femur_lat_meniscii_r.meniscus_lat_r.torque.X	femur_lat_meniscii_r.meniscus_lat_r.torque.Y	femur_lat_meniscii_r.meniscus_lat_r.torque.Z	femur_med_meniscii_r.femur_med_r.force.X	femur_med_meniscii_r.femur_med_r.force.Y	femur_med_meniscii_r.femur_med_r.force.Z	femur_med_meniscii_r.femur_med_r.torque.X	femur_med_meniscii_r.femur_med_r.torque.Y	femur_med_meniscii_r.femur_med_r.torque.Z	femur_med_meniscii_r.meniscus_med_r.force.X	femur_med_meniscii_r.meniscus_med_r.force.Y	femur_med_meniscii_r.meniscus_med_r.force.Z	femur_med_meniscii_r.meniscus_med_r.torque.X	femur_med_meniscii_r.meniscus_med_r.torque.Y	femur_med_meniscii_r.meniscus_med_r.torque.Z	femur_med_tibia_r.tibia_upper_r.force.X	femur_med_tibia_r.tibia_upper_r.force.Y	femur_med_tibia_r.tibia_upper_r.force.Z	femur_med_tibia_r.tibia_upper_r.torque.X	femur_med_tibia_r.tibia_upper_r.torque.Y	femur_med_tibia_r.tibia_upper_r.torque.Z	femur_med_tibia_r.femur_med_r.force.X	femur_med_tibia_r.femur_med_r.force.Y	femur_med_tibia_r.femur_med_r.force.Z	femur_med_tibia_r.femur_med_r.torque.X	femur_med_tibia_r.femur_med_r.torque.Y	femur_med_tibia_r.femur_med_r.torque.Z	femur_lat_tibia_r.tibia_upper_r.force.X	femur_lat_tibia_r.tibia_upper_r.force.Y	femur_lat_tibia_r.tibia_upper_r.force.Z	femur_lat_tibia_r.tibia_upper_r.torque.X	femur_lat_tibia_r.tibia_upper_r.torque.Y	femur_lat_tibia_r.tibia_upper_r.torque.Z	femur_lat_tibia_r.femur_lat_r.force.X	femur_lat_tibia_r.femur_lat_r.force.Y	femur_lat_tibia_r.femur_lat_r.force.Z	femur_lat_tibia_r.femur_lat_r.torque.X	femur_lat_tibia_r.femur_lat_r.torque.Y	femur_lat_tibia_r.femur_lat_r.torque.Z	aACL_R	pACL_R	aPCL_R	pPCL_R	aMCL_R	mMCL_R	pMCL_R	aLCL_R	mLCL_R	pLCL_R	aPCL_L	pPCL_L	aMCL_L	aLCL_L
      0.20946094	      9.71678537	      7.15139443	      7.67719233	      3.32317349	      3.90008981	      4.10816206	      0.00000000	    164.00940547	    182.41268478	    340.36103048	    122.53042227	      7.10463320	      5.16494733	      3.67861977	      3.10962639	      5.17407914	      3.34499327	      2.80211187	     92.82406063	      4.61537423	      7.01850237	      5.26096896	     25.35379717	     16.03036217	      4.55490825	      3.29517168	      5.57372251	    107.95503083	     40.81170413	     32.14485471	     56.08903492	      0.00000000	      0.00000000	      0.00000000	      0.00000000	      0.00000000	      0.00000000	     35.71632551	      1.31051572	      3.05304651	     22.92931210	     48.89776491	     11.86621003	      9.71678537	      7.15139443	      7.67719233	      3.32317349	      3.90008981	      4.10816206	     10.58516739	      5.24493011	     10.26445754	      9.06452269	      1.89743845	      7.10463320	      5.16494733	      3.67861977	      3.10962639	      5.17407914	      4.83184534	      2.80211187	      1.95367675	      4.61537423	      7.01850237	      5.26096896	     25.35379717	     16.03036217	      4.55490825	      3.29517168	      5.57372251	     14.20584630	      0.00000000	      0.00000000	      0.00000000	     19.33549931	      9.03272279	     42.99559593	     47.28184089	      4.18037212	      3.64088638	     11.13105540	      5.88993950	     15.83416659	      2.47966058	      7.87186678	      2.52127315	     31.26950676	     31.26950676	     11.47657319	     11.47657319	     29.03225470	     29.03225470	    154.22727451	     95.13237387	      9.46787294	     -5.95699480	      3.59151364	     61.22136912	   -154.22727451	    -95.13237387	     -9.46787294	      2.47623040	     -4.25849585	      2.18045405	      0.04566455	      0.00098715	     -0.02853189	      0.01135886	     -0.00070897	      0.01815450	     -0.04566455	     -0.00098715	      0.02853189	     -0.00010425	      0.00136128	     -0.00011922	   -898.38336938	   -370.34423514	    317.39580457	     -8.31112252	     21.92885807	      2.26223624	    898.38336938	    370.34423514	   -317.39580457	    134.46602811	    -15.71073949	    362.07248984	   -305.82433075	   -137.09057569	    -83.69581762	      4.46664588	    -10.58732703	      1.02335103	    305.82433075	    137.09057569	     83.69581762	    -37.10872632	      7.50408916	    123.30096476	      0.51131187	      0.00000000	    965.02171407	    609.68336677	     23.53428556	      9.14789592	      0.00000000	      0.00000000	      0.00000000	      0.00000000	      0.00000000	      0.00000000	      0.00000001	      0.00000000
      0.20947490	      9.71638834	      7.15112314	      7.67689748	      3.32305273	      3.89995825	      4.10799420	      0.00000000	    164.01858964	    182.42295399	    340.36951631	    122.53134685	      7.10436050	      5.16476139	      3.67848124	      3.10950629	      5.17386134	      3.34490892	      2.80200934	     92.82625175	      4.61519878	      7.01823486	      5.26076502	     25.35330067	     16.02979746	      4.55473909	      3.29509028	      5.57350521	    108.21828131	     40.81467945	   5761.01206660	     56.09221165	      0.00000000	      0.00000000	      0.00000000	      0.00000000	      0.00000000	      0.00000000	     35.71591600	      1.30964158	      3.05176004	     22.92567963	     48.89150440	     11.86429733	      9.71638834	      7.15112314	      7.67689748	      3.32305273	      3.89995825	      4.10799420	     10.58540447	      5.24471708	     10.26399593	      9.06418572	      1.89736982	      7.10436050	      5.16476139	      3.67848124	      3.10950629	      5.17386134	      4.83171055	      2.80200934	      1.95360484	      4.61519878	      7.01823486	      5.26076502	     25.35330067	     16.02979746	      4.55473909	      3.29509028	      5.57350521	     14.20520449	      0.00000000	      0.00000000	      0.00000000	     19.33483201	      9.03239191	     42.99361249	     47.28097171	      4.17995403	      3.64051357	     11.13056830	      5.88966257	     15.83359637	      2.47957344	      7.87167059	      2.52121527	     31.26836786	     31.26836786	     11.47611957	     11.47611957	     29.03184574	     29.03184574	    148.17908777	     95.30699600	     11.02114542	     -6.58999856	      3.46720240	     58.76991488	   -148.17908777	    -95.30699600	    -11.02114542	      2.49714165	     -4.16028520	      2.25200405	      0.04344230	      0.00115813	     -0.02720285	      0.01083192	     -0.00067498	      0.01726907	     -0.04344230	     -0.00115813	      0.02720285	     -0.00010090	      0.00129718	     -0.00010541	   -895.72847638	   -373.70664616	    315.21652384	     -8.31640196	     21.81624323	      2.43120124	    895.72847638	    373.70664616	   -315.21652384	    133.62183978	    -15.65002126	    360.95078657	   -304.69020680	   -138.45613617	    -84.56383450	      4.51127396	    -10.59567221	      1.09662348	    304.69020680	    138.45613617	     84.56383450	    -37.49223407	      7.49169459	    122.81852733	     -0.02640868	      0.00000000	    966.59437383	    613.79913632	     24.99174064	     10.96094656	      0.00000000	      0.00000000	      0.00000000	      0.00000000	      0.00000000	      0.00000000	      0.00000001	      0.00000000
      0.20948887	      9.71599138	      7.15085189	      7.67660269	      3.32293200	      3.89982671	      4.10782638	      0.00000000	    164.01626751	    182.41766090	    340.31124654	    122.52439268	      7.10408785	      5.16457548	      3.67834273	      3.10938620	      5.17364358	      3.34506407	      2.80190683	     92.82095195	      4.61502336	      7.01796740	      5.26056113	     25.35280427	     16.02923285	      4.55456995	      3.29500889	      5.57328793	    108.46934550	     40.80332306	   2384.40791575	     56.07668964	      0.00000000	      0.00000000	      0.00000000	      0.00000000	      0.00000000	      0.00000000	     35.71637329	      1.30862944	      3.05030935	     22.92204324	     48.88555316	     11.86251612	      9.71599138	      7.15085189	      7.67660269	      3.32293200	      3.89982671	      4.10782638	     10.58564096	      5.24450409	     10.26353440	      9.06384881	      1.89730121	      7.10408785	      5.16457548	      3.67834273	      3.10938620	      5.17364358	      4.83157579	      2.80190683	      1.95353294	      4.61502336	      7.01796740	      5.26056113	     25.35280427	     16.02923285	      4.55456995	      3.29500889	      5.57328793	     14.20456279	      0.00000000	      0.00000000	      0.00000000	     19.33416472	      9.03206103	     42.99162934	     47.28010269	      4.17953600	      3.64014084	     11.13008130	      5.88938569	     15.83302626	      2.47948632	      7.87147438	      2.52115737	     31.26722918	     31.26722918	     11.47566604	     11.47566604	     29.03143685	     29.03143685	    128.01617620	     94.94160082	     15.76584051	     -8.50214414	      3.04687562	     50.61048179	   -128.01617620	    -94.94160082	    -15.76584051	      2.53713971	     -3.81505370	      2.45038193	      0.03605235	      0.00156485	     -0.02274742	      0.00906381	     -0.00056165	      0.01432616	     -0.03605235	     -0.00156485	      0.02274742	     -0.00008873	      0.00108269	     -0.00006573	   -886.13455054	   -384.52256457	    307.77021002	     -8.33152180	     21.42635575	      2.97750035	    886.13455054	    384.52256457	   -307.77021002	    130.73006211	    -15.43639189	    356.91714883	   -300.88139032	   -142.72084500	    -87.26760372	      4.65126374	    -10.61464563	      1.32559267	    300.88139032	    142.72084500	     87.26760372	    -38.68735905	      7.44728902	    121.20413236	     -1.80116058	      0.00000000	    971.63536819	    627.42026823	     29.88709156	     17.03889896	      0.00000000	      0.00000000	      0.00000000	      0.00000000	      0.00000000	      0.00000000	      0.00000001	      0.00000000
      0.20952508	      9.71496215	      7.15014861	      7.67583836	      3.32261895	      3.89948567	      4.10739124	      0.00000000	    163.98370732	    182.36759701	    340.00897294	    122.48873658	      7.10338093	      5.16409346	      3.67798362	      3.10907485	      5.17307898	      3.34603824	      2.80164105	     92.79024761	      4.61456854	      7.01727394	      5.26003247	     25.35151721	     16.02776896	      4.55413142	      3.29479787	      5.57272445	    109.08959980	     40.74132089	    199.63164069	     55.99710154	      0.00000000	      0.00000000	      0.00000000	      0.00000000	      0.00000000	      0.00000000	     35.71953659	      1.30568822	      3.04616608	     22.91262352	     48.87081903	     11.85819681	      9.71496215	      7.15014861	      7.67583836	      3.32261895	      3.89948567	      4.10739124	     10.58625157	      5.24395185	     10.26233773	      9.06297529	      1.89712330	      7.10338093	      5.16409346	      3.67798362	      3.10907485	      5.17307898	      4.83122636	      2.80164105	      1.95334652	      4.61456854	      7.01727394	      5.26003247	     25.35151721	     16.02776896	      4.55413142	      3.29479787	      5.57272445	     14.20289902	      0.00000000	      0.00000000	      0.00000000	     19.33243404	      9.03120291	     42.98648713	     47.27784946	      4.17845207	      3.63917443	     11.12881858	      5.88866780	     15.83154800	      2.47926043	      7.87096543	      2.52100716	     31.26427682	     31.26427682	     11.47449014	     11.47449014	     29.03037671	     29.03037671	    114.70456050	     91.14599231	     18.13955949	     -9.39598089	      2.76588470	     45.26243658	   -114.70456050	    -91.14599231	    -18.13955949	      2.48467348	     -3.56313219	      2.44679216	      0.03083873	      0.00166737	     -0.01955555	      0.00779516	     -0.00048129	      0.01225144	     -0.03083873	     -0.00166737	      0.01955555	     -0.00007846	      0.00092968	     -0.00004412	   -878.01262464	   -389.78293832	    302.76535775	     -8.31675918	     21.14549614	      3.29828528	    878.01262464	    389.78293832	   -302.76535775	    128.75768161	    -15.26915084	    353.54290144	   -298.03775344	   -144.95510623	    -88.59258196	      4.72252686	    -10.60121387	      1.46142079	    298.03775344	    144.95510623	     88.59258196	    -39.27573001	      7.40509637	    120.00983963	     -2.83205175	      0.00000000	    975.10764906	    636.13761411	     32.98349393	     20.85916859	      0.00000000	      0.00000000	      0.00000000	      0.00000000	      0.00000000	      0.00000000	      0.00000001	      0.00000000
